<?xml version="1.0" encoding="utf-8"?>
<!-- Generator: Adobe Illustrator 16.0.0, SVG Export Plug-In . SVG Version: 6.00 Build 0)  -->
<!DOCTYPE svg PUBLIC "-//W3C//DTD SVG 1.1//EN" "http://www.w3.org/Graphics/SVG/1.1/DTD/svg11.dtd">
<svg version="1.1" id="Layer_1" xmlns="http://www.w3.org/2000/svg" xmlns:xlink="http://www.w3.org/1999/xlink" x="0px" y="0px"
	 width="91.026px" height="90.801px" viewBox="0 0 91.026 90.801" enable-background="new 0 0 91.026 90.801" xml:space="preserve">
<path fill-rule="evenodd" clip-rule="evenodd" d="M0,90.14c1.216-2.846,2.381-5.575,3.546-8.304
	c0.354-0.829,0.729-1.649,1.047-2.491c0.189-0.501,0.479-0.67,1.013-0.658c1.533,0.035,3.067,0.012,4.708,0.012
	c0-21.815,0-43.586,0-65.417c12.014,0,23.92,0,35.938,0c0,21.753,0,43.522,0,65.339c0.272,0.037,0.442,0.079,0.612,0.081
	c7.715,0.083,15.431,0.163,23.146,0.242c0.566,0.006,1.132,0,1.798,0c0-21.906,0-43.742,0-65.65c2.127,0,4.155,0,6.31,0
	c0,21.77,0,43.539,0,65.413c1.922,0,3.722,0.038,5.52-0.019c0.72-0.023,1.042,0.21,1.316,0.876c1.293,3.136,2.654,6.244,3.988,9.363
	c0.162,0.378,0.312,0.76,0.497,1.212C59.598,90.14,29.869,90.14,0,90.14z"/>
<path fill-rule="evenodd" clip-rule="evenodd" d="M22.088,8.485c2.249-2.577,4.373-5.031,6.532-7.454
	c0.201-0.225,0.622-0.358,0.941-0.359c9.84-0.017,19.679-0.016,29.519,0.002c0.326,0,0.753,0.101,0.963,0.318
	c2.318,2.404,4.603,4.839,6.895,7.269c0.033,0.035,0.028,0.106,0.055,0.223C52.078,8.485,37.179,8.485,22.088,8.485z"/>
<path fill-rule="evenodd" clip-rule="evenodd" d="M65.549,56.567c-4.214,0-8.359,0-12.562,0c0-3.396,0-6.754,0-10.187
	c4.157,0,8.322,0,12.562,0C65.549,49.733,65.549,53.111,65.549,56.567z"/>
<path fill-rule="evenodd" clip-rule="evenodd" d="M52.97,74.223c0-3.403,0-6.758,0-10.184c4.184,0,8.345,0,12.58,0
	c0,3.36,0,6.738,0,10.184C61.401,74.223,57.242,74.223,52.97,74.223z"/>
<path fill-rule="evenodd" clip-rule="evenodd" d="M52.983,38.25c0-3.275,0-6.504,0-9.782c4.208,0,8.371,0,12.586,0
	c0,3.267,0,6.496,0,9.782C61.364,38.25,57.202,38.25,52.983,38.25z"/>
<path fill-rule="evenodd" clip-rule="evenodd" d="M52.975,20.568c0-2.454,0-4.848,0-7.293c4.212,0,8.376,0,12.595,0
	c0,2.435,0,4.829,0,7.293C61.398,20.568,57.235,20.568,52.975,20.568z"/>
</svg>
